<mxfile host="app.diagrams.net" agent="Mozilla/5.0 (Windows NT 10.0; Win64; x64) AppleWebKit/537.36 (KHTML, like Gecko) Chrome/130.0.0.0 Safari/537.36" version="24.8.3">
  <diagram id="wFE0QG_FPsp0jaGvCLVb" name="Page-1">
    <mxGraphModel dx="866" dy="634" grid="1" gridSize="10" guides="1" tooltips="1" connect="1" arrows="1" fold="1" page="1" pageScale="1" pageWidth="850" pageHeight="1100" background="#ffffff" math="0" shadow="0">
      <root>
        <mxCell id="0" />
        <mxCell id="1" parent="0" />
        <mxCell id="P3G8vZLol6aBFHxCF3_v-33" value="" style="whiteSpace=wrap;html=1;aspect=fixed;strokeColor=#e0e0e0;" vertex="1" parent="1">
          <mxGeometry x="340" y="140" width="1040" height="1040" as="geometry" />
        </mxCell>
        <mxCell id="_5mSTuPxr-ZiKRkBDSY7-1" value="" style="swimlane;fontStyle=2;childLayout=stackLayout;horizontal=1;startSize=28;horizontalStack=1;resizeParent=1;resizeParentMax=0;resizeLast=0;collapsible=0;marginBottom=0;swimlaneFillColor=none;fontFamily=Permanent Marker;fontSize=16;points=[];verticalAlign=top;stackBorder=0;resizable=1;strokeWidth=2;sketch=1;disableMultiStroke=1;fillColor=#f5f5f5;fontColor=#333333;strokeColor=#666666;fillStyle=solid;" parent="1" vertex="1">
          <mxGeometry x="530" y="190" width="530" height="780" as="geometry" />
        </mxCell>
        <object label="TO DO" status="New" id="_5mSTuPxr-ZiKRkBDSY7-2">
          <mxCell style="swimlane;strokeWidth=2;fontFamily=Permanent Marker;html=0;startSize=1;verticalAlign=bottom;spacingBottom=5;points=[];childLayout=stackLayout;stackBorder=20;stackSpacing=20;resizeLast=0;resizeParent=1;horizontalStack=0;collapsible=0;sketch=1;strokeColor=#666666;fillStyle=solid;fillColor=#f5f5f5;fontColor=#333333;" parent="_5mSTuPxr-ZiKRkBDSY7-1" vertex="1">
            <mxGeometry y="28" width="180" height="752" as="geometry" />
          </mxCell>
        </object>
        <object label="&lt;font color=&quot;#262626&quot;&gt;08/11 - 14/11&lt;br&gt;&lt;span style=&quot;font-size: 10px; font-weight: 400;&quot;&gt;&lt;i&gt;Front-End: Divisão de tarefas por equipes&lt;/i&gt;&lt;/span&gt;&lt;/font&gt;" placeholders="1" id="_5mSTuPxr-ZiKRkBDSY7-10">
          <mxCell style="whiteSpace=wrap;html=1;strokeWidth=2;fillColor=#ff9eb5;fontStyle=1;spacingTop=0;rounded=1;arcSize=9;points=[];sketch=1;fontFamily=Permanent Marker;hachureGap=8;fillWeight=1;strokeColor=#6F0000;fontColor=#ffffff;fillStyle=solid;" parent="_5mSTuPxr-ZiKRkBDSY7-2" vertex="1">
            <mxGeometry x="20" y="21" width="140" height="80" as="geometry" />
          </mxCell>
        </object>
        <object label="&lt;font color=&quot;#000000&quot;&gt;08/11 - 14/11&lt;br&gt;&lt;span style=&quot;font-size: 10px; font-weight: 400;&quot;&gt;&lt;i&gt;DBA:Divisão de tarefas por equipes&lt;/i&gt;&lt;/span&gt;&lt;/font&gt;" placeholders="1" id="P3G8vZLol6aBFHxCF3_v-25">
          <mxCell style="whiteSpace=wrap;html=1;strokeWidth=2;fillColor=#1ba1e2;fontStyle=1;spacingTop=0;rounded=1;arcSize=9;points=[];sketch=1;fontFamily=Permanent Marker;hachureGap=8;fillWeight=1;strokeColor=#0093EB;fillStyle=solid;fontColor=#ffffff;" vertex="1" parent="_5mSTuPxr-ZiKRkBDSY7-2">
            <mxGeometry x="20" y="121" width="140" height="80" as="geometry" />
          </mxCell>
        </object>
        <object label="&lt;font color=&quot;#000000&quot;&gt;08/11 - 14/11&lt;br&gt;&lt;span style=&quot;font-size: 10px; font-weight: 400;&quot;&gt;&lt;i&gt;back-end: Divisão de tarefas por equipes&lt;/i&gt;&lt;/span&gt;&lt;/font&gt;" placeholders="1" id="P3G8vZLol6aBFHxCF3_v-26">
          <mxCell style="whiteSpace=wrap;html=1;strokeWidth=2;fillColor=#60a917;fontStyle=1;spacingTop=0;rounded=1;arcSize=9;points=[];sketch=1;fontFamily=Permanent Marker;hachureGap=8;fillWeight=1;strokeColor=#2D7600;fillStyle=solid;fontColor=#ffffff;" vertex="1" parent="_5mSTuPxr-ZiKRkBDSY7-2">
            <mxGeometry x="20" y="221" width="140" height="80" as="geometry" />
          </mxCell>
        </object>
        <object label="&lt;font color=&quot;#262626&quot;&gt;18/11 – 25/11&amp;nbsp;&lt;/font&gt;&lt;div&gt;&lt;font color=&quot;#262626&quot;&gt;&lt;i style=&quot;font-size: 10px; font-weight: 400;&quot;&gt;Front-End: Principal&lt;/i&gt;&lt;/font&gt;&lt;/div&gt;" placeholders="1" id="P3G8vZLol6aBFHxCF3_v-27">
          <mxCell style="whiteSpace=wrap;html=1;strokeWidth=2;fillColor=#e51400;fontStyle=1;spacingTop=0;rounded=1;arcSize=9;points=[];sketch=1;fontFamily=Permanent Marker;hachureGap=8;fillWeight=1;strokeColor=#B20000;fontColor=#ffffff;fillStyle=solid;" vertex="1" parent="_5mSTuPxr-ZiKRkBDSY7-2">
            <mxGeometry x="20" y="321" width="140" height="80" as="geometry" />
          </mxCell>
        </object>
        <object label="&lt;font color=&quot;#262626&quot;&gt;18/11 – 25/11&amp;nbsp;&lt;/font&gt;&lt;div&gt;&lt;font color=&quot;#262626&quot;&gt;&lt;span style=&quot;font-size: 10px; font-weight: 400;&quot;&gt;&lt;i&gt;BD:&amp;nbsp;&lt;/i&gt;&lt;/span&gt;&lt;/font&gt;&lt;span style=&quot;background-color: initial; font-size: 10px; font-weight: 400;&quot;&gt;&lt;font color=&quot;#262626&quot;&gt;&lt;i&gt;: modelagem de&lt;/i&gt;&lt;/font&gt;&lt;/span&gt;&lt;/div&gt;&lt;div&gt;&lt;font color=&quot;#262626&quot;&gt;&lt;span style=&quot;font-size: 10px; font-weight: 400;&quot;&gt;&lt;i&gt;banco de dados.&lt;/i&gt;&lt;/span&gt;&lt;/font&gt;&lt;/div&gt;" placeholders="1" id="P3G8vZLol6aBFHxCF3_v-28">
          <mxCell style="whiteSpace=wrap;html=1;strokeWidth=2;fillColor=#ffa96b;fontStyle=1;spacingTop=0;rounded=1;arcSize=9;points=[];sketch=1;fontFamily=Permanent Marker;hachureGap=8;fillWeight=1;strokeColor=#C73500;fontColor=#000000;fillStyle=solid;" vertex="1" parent="_5mSTuPxr-ZiKRkBDSY7-2">
            <mxGeometry x="20" y="421" width="140" height="80" as="geometry" />
          </mxCell>
        </object>
        <object label="&lt;font color=&quot;#000000&quot;&gt;18/11 - 25/11&lt;br&gt;&lt;span style=&quot;font-size: 10px; font-weight: 400;&quot;&gt;&lt;i&gt;back-end: programação back-end&lt;/i&gt;&lt;/span&gt;&lt;/font&gt;" placeholders="1" id="P3G8vZLol6aBFHxCF3_v-29">
          <mxCell style="whiteSpace=wrap;html=1;strokeWidth=2;fillColor=#60a917;fontStyle=1;spacingTop=0;rounded=1;arcSize=9;points=[];sketch=1;fontFamily=Permanent Marker;hachureGap=8;fillWeight=1;strokeColor=#2D7600;fillStyle=solid;fontColor=#ffffff;" vertex="1" parent="_5mSTuPxr-ZiKRkBDSY7-2">
            <mxGeometry x="20" y="521" width="140" height="80" as="geometry" />
          </mxCell>
        </object>
        <object label="DOING" status="In progress" id="_5mSTuPxr-ZiKRkBDSY7-6">
          <mxCell style="swimlane;strokeWidth=2;fontFamily=Permanent Marker;html=0;startSize=1;verticalAlign=bottom;spacingBottom=5;points=[];childLayout=stackLayout;stackBorder=20;stackSpacing=20;resizeLast=0;resizeParent=1;horizontalStack=0;collapsible=0;sketch=1;strokeColor=#666666;fillStyle=solid;fillColor=#f5f5f5;fontColor=#333333;" parent="_5mSTuPxr-ZiKRkBDSY7-1" vertex="1">
            <mxGeometry x="180" y="28" width="170" height="752" as="geometry" />
          </mxCell>
        </object>
        <object label="&amp;nbsp;21/10 – 25/10&lt;br&gt;&lt;div&gt;&lt;span style=&quot;font-size: 10px; font-weight: 400;&quot;&gt;&lt;i&gt;Analista: Levantamento de&lt;/i&gt;&lt;/span&gt;&lt;/div&gt;&lt;div&gt;&lt;span style=&quot;font-size: 10px; font-weight: 400;&quot;&gt;&lt;i&gt;requisitos de sistema por&lt;/i&gt;&lt;/span&gt;&lt;/div&gt;&lt;div&gt;&lt;span style=&quot;font-size: 10px; font-weight: 400;&quot;&gt;&lt;i&gt;observação direta e análise de&lt;/i&gt;&lt;/span&gt;&lt;/div&gt;&lt;div&gt;&lt;span style=&quot;font-size: 10px; font-weight: 400;&quot;&gt;&lt;i&gt;documentos.&lt;/i&gt;&lt;/span&gt;&lt;/div&gt;" placeholders="1" id="_5mSTuPxr-ZiKRkBDSY7-7">
          <mxCell style="whiteSpace=wrap;html=1;strokeWidth=2;fillColor=#ffe6cc;fontStyle=1;spacingTop=0;rounded=1;arcSize=9;points=[];sketch=1;fontFamily=Permanent Marker;hachureGap=8;fillWeight=1;strokeColor=#d79b00;fillStyle=solid;" parent="_5mSTuPxr-ZiKRkBDSY7-6" vertex="1">
            <mxGeometry x="20" y="21" width="130" height="80" as="geometry" />
          </mxCell>
        </object>
        <object label="23/10 - 28/10&lt;br&gt;&lt;div&gt;&lt;span style=&quot;font-size: 10px; font-weight: 400;&quot;&gt;&lt;i&gt;Analista+ Infraestrutura:&lt;/i&gt;&lt;/span&gt;&lt;/div&gt;&lt;div&gt;&lt;span style=&quot;font-size: 10px; font-weight: 400;&quot;&gt;&lt;i&gt;Levantamento de requisitos de&lt;/i&gt;&lt;/span&gt;&lt;/div&gt;&lt;div&gt;&lt;span style=&quot;font-size: 10px; font-weight: 400;&quot;&gt;&lt;i&gt;sistema, Hardware com&lt;/i&gt;&lt;/span&gt;&lt;/div&gt;&lt;div&gt;&lt;span style=&quot;font-size: 10px; font-weight: 400;&quot;&gt;&lt;i&gt;responsável técnico&lt;/i&gt;&lt;/span&gt;&lt;/div&gt;" placeholders="1" id="_5mSTuPxr-ZiKRkBDSY7-4">
          <mxCell style="whiteSpace=wrap;html=1;strokeWidth=2;fillColor=#d0cee2;fontStyle=1;spacingTop=0;rounded=1;arcSize=9;points=[];sketch=1;fontFamily=Permanent Marker;hachureGap=8;fillWeight=1;strokeColor=#1e00ff;fillStyle=solid;" parent="_5mSTuPxr-ZiKRkBDSY7-6" vertex="1">
            <mxGeometry x="20" y="121" width="130" height="80" as="geometry" />
          </mxCell>
        </object>
        <object label="04/11 - 08/11&lt;br&gt;&lt;span style=&quot;font-size: 10px; font-weight: 400;&quot;&gt;&lt;i&gt;Geral: Definição de soluções e prazos.&lt;/i&gt;&lt;/span&gt;" placeholders="1" id="P3G8vZLol6aBFHxCF3_v-13">
          <mxCell style="whiteSpace=wrap;html=1;strokeWidth=2;fillColor=#f5f5f5;fontStyle=1;spacingTop=0;rounded=1;arcSize=9;points=[];sketch=1;fontFamily=Permanent Marker;hachureGap=8;fillWeight=1;strokeColor=#666666;fontColor=#333333;fillStyle=solid;" vertex="1" parent="_5mSTuPxr-ZiKRkBDSY7-6">
            <mxGeometry x="20" y="221" width="130" height="80" as="geometry" />
          </mxCell>
        </object>
        <object label="04/11 - 11/11&lt;br&gt;&lt;div&gt;&lt;span style=&quot;font-size: 10px; font-weight: 400;&quot;&gt;&lt;i&gt;Analista + Design: Criação de&lt;/i&gt;&lt;/span&gt;&lt;/div&gt;&lt;div&gt;&lt;span style=&quot;font-size: 10px; font-weight: 400;&quot;&gt;&lt;i&gt;wireframe de telas principais&lt;/i&gt;&lt;/span&gt;&lt;/div&gt;" placeholders="1" id="_5mSTuPxr-ZiKRkBDSY7-5">
          <mxCell style="whiteSpace=wrap;html=1;strokeWidth=2;fillColor=#e1d5e7;fontStyle=1;spacingTop=0;rounded=1;arcSize=9;points=[];sketch=1;fontFamily=Permanent Marker;hachureGap=8;fillWeight=1;strokeColor=#9673a6;fillStyle=solid;" parent="_5mSTuPxr-ZiKRkBDSY7-6" vertex="1">
            <mxGeometry x="20" y="321" width="130" height="80" as="geometry" />
          </mxCell>
        </object>
        <object label="DONE" status="Completed" id="_5mSTuPxr-ZiKRkBDSY7-9">
          <mxCell style="swimlane;strokeWidth=2;fontFamily=Permanent Marker;html=0;startSize=1;verticalAlign=bottom;spacingBottom=5;points=[];childLayout=stackLayout;stackBorder=20;stackSpacing=20;resizeLast=0;resizeParent=1;horizontalStack=0;collapsible=0;sketch=1;fillStyle=solid;fillColor=#f5f5f5;fontColor=#333333;strokeColor=#666666;" parent="_5mSTuPxr-ZiKRkBDSY7-1" vertex="1">
            <mxGeometry x="350" y="28" width="180" height="752" as="geometry" />
          </mxCell>
        </object>
        <object label="14/10 - 18/10&lt;br&gt;&lt;span style=&quot;font-weight: normal&quot;&gt;&lt;i&gt;&lt;font style=&quot;font-size: 10px&quot;&gt;Analista: Planejamento de projetos junto aos clientes&lt;/font&gt;&lt;/i&gt;&lt;/span&gt;" placeholders="1" id="_5mSTuPxr-ZiKRkBDSY7-3">
          <mxCell style="whiteSpace=wrap;html=1;strokeWidth=2;fontStyle=1;spacingTop=0;rounded=1;arcSize=9;points=[];sketch=1;fontFamily=Permanent Marker;hachureGap=8;fillWeight=1;fillColor=#f8cecc;strokeColor=#b85450;fillStyle=solid;" parent="_5mSTuPxr-ZiKRkBDSY7-9" vertex="1">
            <mxGeometry x="20" y="21" width="140" height="80" as="geometry" />
          </mxCell>
        </object>
        <mxCell id="P3G8vZLol6aBFHxCF3_v-4" value="" style="rounded=1;whiteSpace=wrap;html=1;absoluteArcSize=1;arcSize=22;strokeWidth=2;fillColor=#FFE6CC;strokeColor=#E3CDB6;" vertex="1" parent="1">
          <mxGeometry x="380" y="280" width="40" height="40" as="geometry" />
        </mxCell>
        <mxCell id="P3G8vZLol6aBFHxCF3_v-7" value="" style="rounded=1;whiteSpace=wrap;html=1;absoluteArcSize=1;arcSize=22;strokeWidth=2;fillColor=#1E00FF;strokeColor=#1500B0;" vertex="1" parent="1">
          <mxGeometry x="380" y="330" width="40" height="40" as="geometry" />
        </mxCell>
        <mxCell id="P3G8vZLol6aBFHxCF3_v-9" value="Atraso" style="text;html=1;align=center;verticalAlign=middle;whiteSpace=wrap;rounded=0;" vertex="1" parent="1">
          <mxGeometry x="410" y="285" width="60" height="30" as="geometry" />
        </mxCell>
        <mxCell id="P3G8vZLol6aBFHxCF3_v-10" value="Prioridade" style="text;html=1;align=center;verticalAlign=middle;resizable=0;points=[];autosize=1;strokeColor=none;fillColor=none;" vertex="1" parent="1">
          <mxGeometry x="410" y="335" width="80" height="30" as="geometry" />
        </mxCell>
        <mxCell id="P3G8vZLol6aBFHxCF3_v-11" value="" style="rounded=1;whiteSpace=wrap;html=1;absoluteArcSize=1;arcSize=22;strokeWidth=2;fillColor=#B85450;strokeColor=#9C4744;" vertex="1" parent="1">
          <mxGeometry x="380" y="380" width="40" height="40" as="geometry" />
        </mxCell>
        <mxCell id="P3G8vZLol6aBFHxCF3_v-12" value="Analista" style="text;html=1;align=center;verticalAlign=middle;resizable=0;points=[];autosize=1;strokeColor=none;fillColor=none;" vertex="1" parent="1">
          <mxGeometry x="415" y="385" width="70" height="30" as="geometry" />
        </mxCell>
        <mxCell id="P3G8vZLol6aBFHxCF3_v-15" value="" style="rounded=1;whiteSpace=wrap;html=1;absoluteArcSize=1;arcSize=22;strokeWidth=2;fillColor=#F5F5F5;strokeColor=#e0e0e0;" vertex="1" parent="1">
          <mxGeometry x="380" y="430" width="40" height="40" as="geometry" />
        </mxCell>
        <mxCell id="P3G8vZLol6aBFHxCF3_v-16" value="Geral" style="text;html=1;align=center;verticalAlign=middle;resizable=0;points=[];autosize=1;strokeColor=none;fillColor=none;" vertex="1" parent="1">
          <mxGeometry x="425" y="435" width="50" height="30" as="geometry" />
        </mxCell>
        <mxCell id="P3G8vZLol6aBFHxCF3_v-17" value="" style="rounded=1;whiteSpace=wrap;html=1;absoluteArcSize=1;arcSize=22;strokeWidth=2;fillColor=#9673A6;strokeColor=#735980;" vertex="1" parent="1">
          <mxGeometry x="380" y="480" width="40" height="40" as="geometry" />
        </mxCell>
        <mxCell id="P3G8vZLol6aBFHxCF3_v-18" value="" style="rounded=1;whiteSpace=wrap;html=1;absoluteArcSize=1;arcSize=22;strokeWidth=2;fillColor=#0093EB;strokeColor=#0064A1;" vertex="1" parent="1">
          <mxGeometry x="380" y="530" width="40" height="40" as="geometry" />
        </mxCell>
        <mxCell id="P3G8vZLol6aBFHxCF3_v-19" value="Analista + Design" style="text;html=1;align=center;verticalAlign=middle;whiteSpace=wrap;rounded=0;" vertex="1" parent="1">
          <mxGeometry x="420" y="487.5" width="100" height="25" as="geometry" />
        </mxCell>
        <mxCell id="P3G8vZLol6aBFHxCF3_v-20" value="DBA" style="text;html=1;align=center;verticalAlign=middle;resizable=0;points=[];autosize=1;strokeColor=none;fillColor=none;" vertex="1" parent="1">
          <mxGeometry x="425" y="535" width="50" height="30" as="geometry" />
        </mxCell>
        <mxCell id="P3G8vZLol6aBFHxCF3_v-21" value="" style="rounded=1;whiteSpace=wrap;html=1;absoluteArcSize=1;arcSize=22;strokeWidth=2;fillColor=#60A917;strokeColor=#488011;" vertex="1" parent="1">
          <mxGeometry x="380" y="580" width="40" height="40" as="geometry" />
        </mxCell>
        <mxCell id="P3G8vZLol6aBFHxCF3_v-22" value="Back-end" style="text;html=1;align=center;verticalAlign=middle;resizable=0;points=[];autosize=1;strokeColor=none;fillColor=none;" vertex="1" parent="1">
          <mxGeometry x="415" y="585" width="70" height="30" as="geometry" />
        </mxCell>
        <mxCell id="P3G8vZLol6aBFHxCF3_v-23" value="" style="rounded=1;whiteSpace=wrap;html=1;absoluteArcSize=1;arcSize=22;strokeWidth=2;fillColor=#E51400;strokeColor=#B00F00;" vertex="1" parent="1">
          <mxGeometry x="380" y="630" width="40" height="40" as="geometry" />
        </mxCell>
        <mxCell id="P3G8vZLol6aBFHxCF3_v-31" value="Front-End" style="text;html=1;align=center;verticalAlign=middle;resizable=0;points=[];autosize=1;strokeColor=none;fillColor=none;" vertex="1" parent="1">
          <mxGeometry x="410" y="635" width="80" height="30" as="geometry" />
        </mxCell>
      </root>
    </mxGraphModel>
  </diagram>
</mxfile>
